<?xml version="1.0" standalone="no"?>
<!DOCTYPE svg PUBLIC "-//W3C//DTD SVG 20010904//EN"
 "http://www.w3.org/TR/2001/REC-SVG-20010904/DTD/svg10.dtd">
<svg version="1.0" xmlns="http://www.w3.org/2000/svg"
 width="64.000000pt" height="64.000000pt" viewBox="0 0 64.000000 64.000000"
 preserveAspectRatio="xMidYMid meet">

<g transform="translate(0.000000,64.000000) scale(0.100000,-0.100000)"
fill="#000000" stroke="none">
<path d="M370 570 c0 -5 -9 -10 -20 -10 -11 0 -20 -4 -20 -10 0 -5 9 -10 20
-10 11 0 20 -4 20 -10 0 -5 -9 -10 -20 -10 -11 0 -20 -4 -20 -10 0 -5 9 -10
20 -10 11 0 20 -4 20 -10 0 -5 16 -10 36 -10 27 0 37 5 41 20 11 43 118 17
141 -35 33 -73 -15 -145 -98 -145 -16 0 -30 -5 -30 -11 0 -8 15 -10 46 -6 69
7 109 51 109 117 0 42 -5 54 -32 81 -24 25 -42 33 -81 37 -38 3 -51 9 -55 23
-4 14 -14 19 -41 19 -20 0 -36 -4 -36 -10z m60 -40 c0 -23 -4 -30 -20 -30 -16
0 -20 7 -20 30 0 23 4 30 20 30 16 0 20 -7 20 -30z"/>
<path d="M352 428 c-22 -22 -15 -48 14 -48 14 0 23 -4 19 -10 -3 -6 -48 -10
-101 -10 -56 0 -94 -4 -94 -10 0 -5 8 -10 19 -10 11 0 23 -12 31 -30 12 -28
16 -30 67 -30 46 0 54 -3 49 -16 -3 -9 -6 -21 -6 -29 0 -7 -9 -15 -21 -18 -15
-4 -39 10 -90 51 -72 59 -71 57 -48 120 5 13 17 22 29 22 11 0 20 5 20 10 0
14 -46 12 -57 -2 -5 -7 -18 -41 -28 -75 -16 -55 -21 -63 -42 -63 -56 0 -113
-56 -113 -110 0 -54 57 -110 112 -110 35 0 83 34 97 69 19 44 7 95 -29 123
-20 16 -27 27 -21 37 14 21 137 -84 133 -114 -6 -45 50 -72 82 -39 19 18 20
34 5 68 -9 19 -9 36 1 71 12 44 13 45 32 28 35 -32 40 -50 22 -85 -9 -18 -22
-36 -28 -40 -8 -6 -8 -10 0 -15 6 -5 19 -23 28 -40 17 -35 61 -63 96 -63 53 0
110 57 110 110 0 72 -89 132 -150 100 -15 -8 -24 -1 -54 37 -20 25 -36 50 -36
54 0 4 12 9 28 11 23 3 27 8 27 33 0 28 -2 30 -45 33 -26 2 -50 -2 -58 -10z
m88 -24 c0 -12 -6 -15 -22 -10 -13 3 -31 6 -41 6 -10 0 -15 5 -12 10 3 6 22
10 41 10 25 0 34 -4 34 -16z m-67 -84 c-5 -17 -14 -20 -59 -20 -30 0 -54 2
-54 4 0 2 -3 11 -6 20 -5 14 4 16 59 16 60 0 65 -2 60 -20z m-250 -79 c-3 -11
-15 -22 -28 -25 -26 -7 -40 -36 -30 -65 7 -23 37 -35 65 -26 24 7 37 52 21 68
-13 13 -15 57 -2 57 18 0 51 -53 51 -82 0 -41 -48 -88 -90 -88 -43 0 -90 47
-90 90 0 39 47 90 83 90 20 0 24 -4 20 -19z m468 -10 c20 -20 29 -39 29 -61 0
-43 -47 -90 -90 -90 -31 0 -90 45 -90 69 0 18 34 12 53 -9 30 -35 87 -16 87
30 0 26 -29 53 -51 47 -21 -6 -44 17 -34 33 13 21 66 11 96 -19z m-111 -49
c-40 -4 -45 1 -30 28 l12 22 25 -24 25 -23 -32 -3z m-377 -2 c-7 -25 5 -26 24
-2 12 16 13 15 11 -8 -2 -17 -10 -26 -26 -28 -24 -4 -38 18 -28 43 8 22 25 18
19 -5z m262 -10 c0 -18 -6 -26 -23 -28 -24 -4 -38 18 -28 44 3 9 15 14 28 12
17 -2 23 -10 23 -28z m190 0 c0 -27 -29 -40 -48 -21 -8 8 -5 11 11 11 25 0 28
10 10 29 -11 10 -9 12 7 9 14 -2 20 -11 20 -28z"/>
</g>
</svg>
